<svg width="107" height="110" viewBox="0 0 107 110" fill="none" xmlns="http://www.w3.org/2000/svg">
<path d="M53.1791 52.628C48.9515 45.4507 41.4345 47.5391 31.6461 44.401C17.3853 39.899 10.5962 46.2133 12.3881 53.1424C14.005 59.9239 23.4609 61.2766 26.6701 67.8961C30.3412 74.3031 26.5269 83.1261 31.5208 88.2408C36.3398 93.2079 45.0992 90.6623 48.8085 75.7307C51.2231 65.7272 57.1198 60.1653 53.1791 52.628Z" fill="#FF6E9F" fill-opacity="0.5"/>
<path d="M48.9339 31.8914C45.7739 39.1593 39.4012 43.1157 34.8657 41.0967C30.3302 39.0776 29.2557 31.2485 32.5907 24.1282C35.7507 16.8603 41.9484 12.7563 46.6589 14.9229C51.3693 17.0895 52.0939 24.6235 48.9339 31.8914Z" fill="#FF6E9F" fill-opacity="0.5"/>
<path d="M68.2734 67.4646C60.6163 66.4249 54.0372 69.9063 53.4108 75.097C52.7845 80.2877 58.5589 85.1575 66.1845 85.8696C73.8416 86.9093 80.4207 83.428 81.047 78.2373C81.6734 73.0466 75.899 68.1767 68.2734 67.4646Z" fill="#FF6E9F" fill-opacity="0.5"/>
<path d="M71.2473 39.8731C65.0007 45.1398 57.2141 46.098 53.7635 41.9839C50.3129 37.8698 52.773 30.0117 59.0196 24.7449C65.2663 19.4782 73.0528 18.52 76.5034 22.6341C79.954 26.7482 77.494 34.6063 71.2473 39.8731Z" fill="#FF6E9F" fill-opacity="0.5"/>
<path d="M73.2176 43.6416C65.4451 46.4175 60.7418 52.6848 62.5196 57.7961C64.2975 62.9074 71.8741 64.7822 79.6466 62.0063C87.4191 59.2304 92.1225 52.9631 90.3446 47.8518C88.5667 42.7405 80.9901 40.8656 73.2176 43.6416Z" fill="#FF6E9F" fill-opacity="0.5"/>
</svg>
