<svg width="41" height="43" viewBox="0 0 41 43" fill="none" xmlns="http://www.w3.org/2000/svg">
<path d="M19.2216 20.7765C21.3706 23.9234 24.3091 22.5569 28.4677 23.6405C34.5375 25.1065 36.8186 21.9621 35.621 18.7948C34.4627 15.7569 30.6875 15.5449 28.7652 12.7515C26.8428 9.95818 27.7107 5.7038 25.3993 3.60305C23.0879 1.50231 19.7519 3.13799 19.34 10.0869C19.1045 14.849 17.1817 17.5947 19.2216 20.7765Z" fill="#FFAA00" fill-opacity="0.5"/>
<path d="M22.4085 30.1246C23.1839 26.7519 25.4817 24.4543 27.4014 25.2602C29.3211 26.0661 30.3395 29.4327 29.4941 32.9698C28.7186 36.3425 26.4209 38.6401 24.5011 37.8342C22.5814 37.0284 21.6722 33.6268 22.4085 30.1246Z" fill="#FFAA00" fill-opacity="0.5"/>
<path d="M12.1474 14.8033C15.2985 14.931 17.7138 13.0219 17.5936 10.6459C17.4735 8.27001 14.8347 6.27406 11.7227 6.27582C8.57159 6.14808 6.15632 8.05721 6.27646 10.4331C6.35744 12.6796 8.99628 14.6756 12.1474 14.8033Z" fill="#FFAA00" fill-opacity="0.5"/>
<path d="M12.8741 27.4948C15.0544 24.8088 18.1496 23.9602 19.7586 25.7177C21.3676 27.4751 20.928 31.1664 18.7477 33.8525C16.5674 36.5385 13.4722 37.387 11.8632 35.6296C10.3633 33.8372 10.733 30.3104 12.8741 27.4948Z" fill="#FFAA00" fill-opacity="0.5"/>
<path d="M11.78 25.8566C14.6402 24.2311 16.2272 21.1668 15.1555 18.8113C14.123 16.5853 10.9636 16.0342 7.9942 17.6946C5.13398 19.32 3.54698 22.3843 4.61863 24.7398C5.65111 26.9658 8.91974 27.482 11.78 25.8566Z" fill="#FFAA00" fill-opacity="0.5"/>
</svg>
